<svg width="136" height="57" viewBox="0 0 136 57" fill="none" xmlns="http://www.w3.org/2000/svg">
<path d="M7.51232 29.5304C7.0118 30.8738 6.98109 31.7532 7.42019 32.1688C7.80878 32.5026 8.95876 32.8096 10.8701 33.0898L10.5099 34.2379L0.316074 33.8819L0.676362 32.7338C1.72131 32.6102 2.46397 32.356 2.90434 31.9711C3.45596 31.4567 4.04138 30.3565 4.6606 28.6704L10.8314 11.2751L6.24719 13.0362L7.22717 10.1887L11.7631 8.66605L13.4952 3.76352L16.743 3.59676L15.0564 8.34079C16.3738 7.2928 17.6721 6.79113 18.9513 6.8358C20.1506 6.87768 21.108 7.35139 21.8235 8.25691C22.6419 9.27275 23.0189 10.7001 22.9547 12.539C22.8319 16.0569 21.5209 19.213 19.0219 22.0075C16.4658 24.9067 13.6021 26.301 10.4307 26.1902C9.87101 26.1707 9.31275 26.1112 8.75588 26.0117L7.51232 29.5304ZM16.0939 9.57775C15.4809 9.55635 14.9727 9.59197 14.5692 9.68461L9.41973 24.1937C9.79005 24.2867 10.1884 24.3406 10.6148 24.3555C13.0933 24.4421 15.2148 23.2888 16.9794 20.8956C18.5482 18.7623 19.3749 16.4831 19.4596 14.0579C19.561 11.153 18.4391 9.65965 16.0939 9.57775ZM29.0483 12.7118C29.3474 11.7883 29.5021 11.18 29.5123 10.8868C29.5253 10.5137 29.3453 10.3207 28.9722 10.3076C28.3059 10.2844 27.3502 11.2916 26.105 13.3294L24.8397 12.885C26.7878 9.05732 28.8146 7.18024 30.92 7.25376C32.4657 7.30774 33.2125 8.08094 33.1604 9.57336C33.1287 10.4795 31.8192 13.5957 29.2317 18.9219L29.7914 18.9415C32.5809 13.9425 34.7217 10.7085 36.2139 9.23972C37.2685 8.07582 38.3021 7.51155 39.3148 7.54691C39.9811 7.57018 40.5338 7.7896 40.9729 8.20518C41.4901 8.67685 41.7347 9.31244 41.7068 10.112C41.6398 12.0308 40.8601 12.9641 39.3676 12.912C38.7813 12.8916 38.3619 12.6768 38.1094 12.2677C38.0589 12.1859 37.9349 11.9148 37.7375 11.4542C37.5631 11.1013 37.3725 10.8278 37.1658 10.6338C33.6466 13.6061 30.4191 18.9234 27.4832 26.5856L24.4051 26.4781L29.0483 12.7118ZM45.3381 27.7694C41.3405 27.6298 39.412 25.5479 39.5525 21.5237C39.654 18.6188 40.7305 15.6813 42.782 12.7111C45.1646 9.43222 47.8883 7.84631 50.9531 7.95333C54.924 8.092 56.8392 10.1734 56.6986 14.1977C56.5953 17.1558 55.5188 20.0934 53.4691 23.0103C51.1399 26.291 48.4295 27.8774 45.3381 27.7694ZM44.9556 26.1151C46.9011 26.183 48.8593 24.3569 50.8303 20.6368C52.4363 17.4375 53.2779 14.7319 53.3552 12.5199C53.4212 10.6278 52.748 9.65701 51.3356 9.60769C49.3368 9.53789 47.3785 11.364 45.4608 15.086C43.8576 18.2053 43.016 20.9109 42.936 23.2028C42.8699 25.095 43.5431 26.0658 44.9556 26.1151ZM67.4563 5.76795C66.6834 5.74096 66.0526 5.46545 65.564 4.94141C65.0753 4.41737 64.8444 3.76892 64.8714 2.99605C64.8984 2.22319 65.1739 1.59242 65.698 1.10375C66.222 0.615072 66.8705 0.384229 67.6433 0.411218C68.4162 0.438207 69.047 0.713722 69.5356 1.23776C70.0243 1.7618 70.2551 2.41025 70.2282 3.18312C70.2012 3.95598 69.9257 4.58675 69.4016 5.07542C68.8776 5.5641 68.2291 5.79494 67.4563 5.76795ZM52.7483 36.1131C51.4957 36.0694 50.4818 35.6871 49.7064 34.9663C48.9826 34.3006 48.6369 33.5014 48.6695 32.5686C48.7253 30.9696 49.4462 30.1943 50.832 30.2427C51.8447 30.278 52.4919 30.8476 52.7735 31.9515C53.146 33.5121 53.4093 34.3751 53.5636 34.5406C54.2299 34.5639 54.9185 33.9476 55.6294 32.6916C56.2548 31.5928 57.1536 29.5429 58.3257 26.542L63.0814 14.1404C63.4347 13.1921 63.6183 12.5181 63.6323 12.1184C63.6463 11.7186 63.48 11.5127 63.1336 11.5006C62.4407 11.4764 61.4716 12.4832 60.2264 14.521L58.9611 14.0765C60.9092 10.2489 62.9093 8.37085 64.9614 8.44251C66.5871 8.49928 67.3734 9.2872 67.3203 10.8063C67.2934 11.5791 67.06 12.5316 66.6202 13.6636L61.7734 26.3822C59.2745 32.9923 56.2661 36.236 52.7483 36.1131ZM83.6647 12.3376C83.5995 14.2031 82.4358 15.8169 80.1736 17.1787C77.7753 18.6159 74.8168 19.2864 71.298 19.1902C71.0789 20.1165 70.9577 20.9127 70.9344 21.579C70.8469 24.0841 71.9358 25.3762 74.2011 25.4553C76.04 25.5196 77.7066 24.4037 79.201 22.1078L80.4277 22.5108C79.8131 24.0637 78.9661 25.3949 77.8867 26.5046C76.3651 28.0524 74.6849 28.7943 72.846 28.73C69.2215 28.6035 67.4758 26.6347 67.6089 22.8237C67.7197 19.6523 68.9479 16.5733 71.2935 13.5866C73.8066 10.3924 76.5688 8.84785 79.5803 8.95302C82.3786 9.05073 83.7401 10.1789 83.6647 12.3376ZM78.2285 10.9871C77.0825 10.9471 75.8852 11.6123 74.6366 12.9829C73.4175 14.2745 72.4551 15.8552 71.7494 17.7251C74.1039 17.5405 76.0346 16.8874 77.5413 15.766C78.8844 14.7456 79.5764 13.6491 79.6174 12.4765C79.6509 11.517 79.1879 11.0206 78.2285 10.9871ZM88.478 29.2759C84.9868 29.154 83.3073 27.2009 83.4394 23.4165C83.5511 20.2185 84.7394 17.1381 87.0041 14.1753C89.4381 10.9516 92.1342 9.39141 95.0924 9.49471C96.4782 9.5431 97.5717 9.94151 98.3727 10.6899C99.1223 11.3832 99.4794 12.2362 99.444 13.2489C99.3798 15.0877 98.5349 15.9788 96.9092 15.922C95.7899 15.8829 95.1684 15.3409 95.0448 14.296C95.0247 14.1085 95.0304 13.5617 95.0621 12.6556C95.0844 12.016 95.0088 11.5064 94.8353 11.1267C92.8089 11.0827 90.9506 12.3386 89.2604 14.8945C87.6833 17.2675 86.851 19.7066 86.7635 22.2118C86.6779 24.6636 87.7011 25.9268 89.8331 26.0012C91.6454 26.0645 93.2991 24.9349 94.7944 22.6123L96.0211 23.0154C94.2171 27.3017 91.7027 29.3885 88.478 29.2759ZM103.174 24.7461C103 25.1402 102.908 25.4972 102.897 25.817C102.882 26.2434 103.074 26.4636 103.474 26.4776C104.433 26.5111 105.807 25.3717 107.596 23.0593L108.822 23.4624C106.517 27.5978 104.098 29.6213 101.566 29.5328C100.926 29.5105 100.387 29.3049 99.9466 28.916C99.4019 28.47 99.143 27.8606 99.17 27.0877C99.2007 26.2083 99.5044 25.1516 100.081 23.9176L104.986 12.9621L101.189 12.8295L101.815 10.9302L105.693 11.0656L107.186 7.27543L111.155 7.09383L109.011 11.1815L113.488 11.3378L112.862 13.2371L108.065 13.0696L103.174 24.7461ZM74.4947 28.1872C75.9605 28.2384 77.2731 28.4711 78.4327 28.8851C79.5923 29.2992 80.5869 29.8542 81.4164 30.5503C82.2469 31.2196 82.9262 32.0172 83.4542 32.9428C83.9831 33.8418 84.3632 34.8023 84.5943 35.8244L77.7222 36.625C77.5663 35.739 77.2441 35.034 76.7554 34.51C76.2667 33.986 75.5827 33.7086 74.7032 33.6779C74.0369 33.6546 73.4726 33.7683 73.0103 34.019C72.5755 34.244 72.2174 34.565 71.936 34.9821C71.6546 35.3992 71.4504 35.899 71.3233 36.4816C71.1971 37.0376 71.1224 37.6487 71.0992 38.3149C71.0759 38.9812 71.1073 39.6093 71.1935 40.1994C71.3072 40.7637 71.4894 41.277 71.7401 41.7394C71.9917 42.1751 72.326 42.5336 72.7431 42.815C73.1612 43.0698 73.69 43.2083 74.3296 43.2307C75.289 43.2642 76.0307 43.0366 76.5548 42.5479C77.0788 42.0592 77.4495 41.3784 77.6667 40.5055L84.4663 41.7835C84.1644 42.7869 83.7045 43.7315 83.0865 44.6171C82.4962 45.477 81.7496 46.2248 80.8469 46.8603C79.9717 47.4701 78.9413 47.9411 77.7557 48.2733C76.5967 48.6064 75.2976 48.7478 73.8585 48.6975C72.0996 48.6361 70.5622 48.3423 69.2465 47.816C67.9316 47.2632 66.837 46.5178 65.9625 45.5801C65.088 44.6423 64.4461 43.5392 64.0368 42.2709C63.6275 41.0025 63.4494 39.6087 63.5024 38.0897C63.5564 36.5439 63.8584 35.1536 64.4085 33.9187C64.9586 32.6838 65.7159 31.6296 66.6803 30.7561C67.6447 29.8826 68.7882 29.2287 70.1108 28.7946C71.4344 28.3339 72.8957 28.1314 74.4947 28.1872ZM95.4837 29.3605L94.7997 48.9485L87.3642 48.6889L88.0482 29.1008L95.4837 29.3605ZM95.7266 22.4047L95.5284 28.0812L88.0929 27.8216L88.2911 22.1451L95.7266 22.4047ZM101.563 23.6491L108.998 23.9088L108.792 29.8252L112.749 29.9634L112.572 35.0403L108.614 34.9021L108.345 42.6174C108.324 43.2037 108.431 43.5943 108.664 43.7892C108.898 43.9575 109.255 44.05 109.735 44.0668L112.254 44.1547L112.065 49.5515L108.068 49.4119C106.682 49.3635 105.511 49.2692 104.555 49.1291C103.627 48.9633 102.877 48.6703 102.305 48.25C101.76 47.8041 101.368 47.1767 101.13 46.3679C100.918 45.56 100.835 44.4764 100.883 43.1173L101.179 34.6424L97.9008 34.528L98.0781 29.4511L101.356 29.5655L101.563 23.6491ZM115.287 56.5882L115.476 51.1915L117.754 51.2711C118.527 51.298 119.103 51.2514 119.48 51.1312C119.884 51.0386 120.188 50.729 120.393 50.2025L120.482 49.9654L114.054 30.009L122.009 30.2868L124.655 42.7867L128.166 30.5017L135.881 30.7712L127.629 50.4552C127.105 51.7176 126.561 52.7527 126 53.5602C125.437 54.3944 124.787 55.0388 124.051 55.4934C123.314 55.9746 122.448 56.3046 121.455 56.4834C120.488 56.6631 119.325 56.7292 117.966 56.6817L115.287 56.5882Z" fill="#FF9FD4"/>
</svg>
