<?xml version="1.0" encoding="UTF-8"?>
<svg width="945px" height="202px" viewBox="0 0 945 202" version="1.1" xmlns="http://www.w3.org/2000/svg" xmlns:xlink="http://www.w3.org/1999/xlink">
    <!-- Generator: Sketch 64 (93537) - https://sketch.com -->
    <title>the futur</title>
    <desc>Created with Sketch.</desc>
    <g id="Page-1" stroke="none" stroke-width="1" fill="none" fill-rule="evenodd">
        <g id="the-futur" transform="translate(0.000000, -1.000000)" fill="#1F00FF" fill-rule="nonzero">
            <polygon id="Path" points="41.87 41.61 0 41.61 0 198.19 41.87 198.19 41.87 112.97 66.05 112.97 66.05 77.76 41.87 77.76"></polygon>
            <path d="M162.86,73.77 C146.19,73.77 134.22,79.88 124.36,93.02 L123.89,93.02 L123.89,41.61 L81.17,41.61 L81.17,198.19 L123.89,198.19 L123.89,136.45 C123.89,122.37 129.29,107.81 146.19,107.81 C163.33,107.81 165.44,122.37 165.44,136.45 L165.44,198.19 L208.16,198.19 L208.16,124.48 C208.16,94 193.38,73.77 162.86,73.77 Z" id="Path"></path>
            <path d="M288.26,73.77 C249.06,73.77 221.6,97.95 221.6,138.09 C221.6,179.64 251.41,202.18 291.32,202.18 C305.17,202.18 318.78,198.89 329.81,192.08 C340.84,185.27 349.3,175 352.58,160.86 L311.5,160.86 C306.81,168.86 300.24,171.86 291.08,171.86 C273.47,171.86 264.32,162.47 264.32,145.1 L354.23,145.1 L354.23,140.64 C354.23,99.59 330.05,73.77 288.26,73.77 Z M265,120.49 C267.59,108.05 277.92,101.49 290.36,101.49 C301.86,101.49 312.42,109 314.53,120.49 L265,120.49 Z" id="Shape"></path>
            <path d="M394.65,20.25 C382.91,33.63 382.44,45.84 382.44,62.51 L382.44,77.76 L367.44,77.76 L367.44,113 L382.44,113 L382.44,198.22 L425.16,198.22 L425.16,113 L455,113 L455,77.76 L425.16,77.76 L425.16,58.28 C425.16,44.66 428.92,38.09 439.95,38.09 C445.59,38.09 450.05,39.97 454.95,42.09 L454.95,5.23 C449.303091,2.3221974 443.020241,0.868343123 436.67,1 C420.506886,0.891948219 405.123831,7.93915924 394.65,20.25 L394.65,20.25 Z" id="Path"></path>
            <path d="M556.27,142.08 C556.27,157.34 552.51,168.14 534.9,168.14 C517.29,168.14 513.54,157.34 513.54,142.08 L513.54,77.76 L470.82,77.76 L470.82,150.3 C470.82,189.97 498.75,202.18 534.9,202.18 C571.05,202.18 599,190 599,150.3 L599,77.76 L556.27,77.76 L556.27,142.08 Z" id="Path"></path>
            <polygon id="Path" points="670.84 41.61 628.11 41.61 628.11 77.76 614.26 77.76 614.26 112.97 628.11 112.97 628.11 198.19 670.84 198.19 670.84 112.97 695.02 112.97 695.02 77.76 670.84 77.76"></polygon>
            <path d="M795.39,142.08 C795.39,157.34 791.64,168.14 774.03,168.14 C756.42,168.14 752.67,157.34 752.67,142.08 L752.67,77.76 L709.94,77.76 L709.94,150.3 C709.94,189.97 737.88,202.18 774.03,202.18 C810.18,202.18 838.11,190 838.11,150.3 L838.11,77.76 L795.39,77.76 L795.39,142.08 Z" id="Path"></path>
            <path d="M936.18,76.12 C919.51,76.12 905.42,82.69 897.18,97.48 L896.71,97.48 L896.71,77.76 L854,77.76 L854,198.19 L896.73,198.19 L896.73,149.6 C896.73,128.94 902.59,113.21 926.3,113.21 C932.88,113.21 938.51,113.91 944.38,117.21 L944.38,76.12 L936.18,76.12 Z" id="Path"></path>
        </g>
    </g>
</svg>